<?xml version="1.0" standalone="no"?>
<!DOCTYPE svg PUBLIC "-//W3C//DTD SVG 20010904//EN"
 "http://www.w3.org/TR/2001/REC-SVG-20010904/DTD/svg10.dtd">
<svg version="1.0" xmlns="http://www.w3.org/2000/svg"
 width="600.000000pt" height="600.000000pt" viewBox="0 0 600.000000 600.000000"
 preserveAspectRatio="xMidYMid meet">
<metadata>
Created by potrace 1.11, written by Peter Selinger 2001-2013
</metadata>
<g transform="translate(0.000000,600.000000) scale(0.100000,-0.100000)"
fill="#000000" stroke="none">
<path d="M2833 5930 c-2 -3 -30 -6 -61 -7 -59 -2 -115 -8 -192 -18 -25 -4 -53
-7 -62 -7 -10 1 -18 -3 -18 -8 0 -5 -8 -7 -17 -6 -14 3 -227 -44 -313 -68 -59
-17 -237 -80 -245 -87 -5 -5 -15 -9 -22 -9 -56 0 -541 -267 -611 -337 -7 -7
-17 -13 -21 -13 -4 0 -19 -9 -32 -21 -13 -11 -34 -29 -46 -40 -13 -10 -23 -17
-23 -14 0 2 -10 -6 -23 -18 -12 -12 -49 -44 -82 -72 -106 -91 -285 -279 -365
-384 -14 -18 -30 -38 -36 -45 -24 -25 -164 -234 -164 -244 0 -5 -7 -13 -16
-16 -8 -3 -13 -10 -10 -15 3 -5 -3 -19 -13 -32 -16 -21 -74 -126 -76 -139 0
-3 -9 -21 -20 -40 -11 -19 -20 -37 -20 -40 -1 -3 -11 -25 -22 -50 -25 -55 -66
-156 -78 -190 -1 -3 -5 -13 -8 -22 -7 -19 -13 -38 -16 -50 -1 -4 -9 -27 -17
-50 -20 -57 -64 -223 -69 -259 -2 -16 -6 -32 -8 -36 -3 -5 -9 -29 -12 -53 -4
-25 -10 -56 -12 -70 -3 -14 -5 -42 -6 -62 -1 -21 -5 -38 -8 -38 -3 0 -6 -17
-7 -37 -3 -86 -8 -159 -13 -168 -6 -12 -2 -297 5 -380 7 -78 15 -152 20 -190
14 -100 23 -150 26 -150 1 0 3 -16 6 -36 2 -20 20 -95 40 -165 20 -71 37 -133
38 -139 2 -5 6 -18 10 -27 4 -9 9 -22 10 -30 2 -7 8 -26 15 -43 6 -16 17 -43
23 -60 47 -130 163 -360 247 -495 36 -58 69 -109 73 -115 69 -89 88 -116 88
-124 0 -5 3 -11 8 -13 4 -1 32 -32 62 -68 31 -36 66 -78 80 -93 45 -51 186
-191 240 -237 29 -25 62 -53 74 -63 11 -10 33 -29 48 -43 15 -13 30 -24 33
-24 2 0 39 -26 82 -58 43 -33 89 -65 103 -72 14 -7 27 -16 30 -20 3 -4 30 -20
60 -37 30 -16 74 -42 97 -56 24 -15 43 -25 43 -21 0 3 7 -2 16 -10 8 -9 20
-14 25 -11 5 4 9 1 9 -4 0 -6 4 -11 9 -11 5 0 42 -15 83 -34 105 -50 292 -123
334 -132 12 -2 51 -13 85 -24 90 -27 232 -60 238 -55 2 3 9 1 15 -4 10 -8 60
-17 151 -27 17 -2 50 -6 75 -9 166 -20 581 -22 615 -4 6 3 27 5 48 4 20 -1 37
1 37 4 0 3 17 7 38 8 87 4 264 41 422 89 47 15 90 27 95 29 14 3 33 10 155 57
120 47 309 139 405 198 36 22 65 36 65 32 0 -4 4 -2 8 4 4 6 41 33 82 61 197
133 425 333 564 497 22 26 49 58 60 70 10 11 30 37 45 56 14 19 34 44 44 54 9
11 17 23 17 26 0 4 8 16 18 28 9 11 24 30 32 42 8 12 23 33 32 45 10 13 18 26
18 30 0 3 12 25 28 48 43 66 50 78 84 142 18 33 31 63 30 67 -1 5 3 8 9 8 5 0
8 4 5 9 -4 5 -2 11 2 13 9 3 111 236 128 293 2 6 15 43 29 83 26 74 84 287 90
332 2 14 8 49 14 79 6 29 8 57 5 62 -3 5 -1 9 3 9 5 0 9 10 10 23 1 12 4 49 8
82 3 33 7 81 9 107 1 33 8 53 22 64 10 8 14 13 7 10 -18 -9 -25 11 -12 35 8
16 8 23 0 29 -15 9 -3 42 13 33 8 -4 8 -2 -1 7 -6 7 -9 19 -6 26 3 8 0 14 -7
14 -9 0 -9 4 1 17 11 13 11 17 1 21 -10 3 -10 7 -1 18 9 11 9 14 0 14 -8 0 -9
5 -1 19 7 13 7 22 0 26 -7 4 -7 13 0 26 7 13 7 19 0 19 -5 0 -10 9 -10 20 0
11 5 20 10 20 6 0 10 4 10 10 0 5 -3 9 -7 9 -20 -3 -26 2 -13 11 11 7 11 10 2
10 -8 0 -10 5 -6 12 11 18 12 48 2 54 -4 3 -6 10 -3 15 4 5 1 9 -6 9 -9 0 -9
3 0 14 8 10 9 16 1 21 -5 3 -10 11 -10 16 0 6 6 7 13 3 9 -6 9 -5 1 7 -7 8
-14 32 -16 55 -3 23 -8 46 -12 53 -4 6 -10 28 -12 49 -7 51 -40 191 -71 292
-14 47 -26 90 -28 95 -1 6 -5 19 -10 30 -4 11 -20 55 -36 98 -34 88 -78 189
-116 262 -67 129 -122 225 -132 235 -4 3 -15 21 -25 40 -25 44 -117 172 -184
254 -111 137 -377 406 -401 406 -5 0 -14 6 -18 14 -16 29 -243 190 -368 261
-27 16 -52 32 -55 35 -8 8 -228 115 -295 142 -90 37 -99 41 -107 43 -5 2 -10
4 -13 5 -3 1 -8 3 -12 5 -5 1 -16 5 -25 8 -24 9 -48 17 -51 16 -1 -1 -20 6
-42 15 -40 15 -245 71 -298 80 -15 3 -35 7 -46 11 -10 3 -38 7 -62 10 -24 2
-55 6 -69 9 -34 8 -146 18 -202 19 -27 0 -48 3 -48 6 0 7 -330 8 -337 1z"/>
</g>
</svg>
